<svg xmlns="http://www.w3.org/2000/svg" viewBox="0 0 32 32" fill="none">
  <rect width="32" height="32" rx="8" fill="#FDF8F0"/>
  <path d="M16 6C11.5 6 8 10 8 14.5C8 18 10 20.5 12.5 22C13.5 22.5 14 23.2 14 24V24.5C14 25.3 13.3 26 12.5 26H19.5C18.7 26 18 25.3 18 24.5V24C18 23.2 18.5 22.5 19.5 22C22 20.5 24 18 24 14.5C24 10 20.5 6 16 6Z" fill="#5C4033"/>
  <path d="M16 6C11.5 6 8 10 8 14.5C8 18 10 20.5 12.5 22" stroke="#D4BFA8" stroke-width="0.5" fill="none"/>
  <circle cx="14" cy="12" r="1.2" fill="#FDF8F0"/>
  <circle cx="18" cy="12" r="1.2" fill="#FDF8F0"/>
  <path d="M14 16C14.8 16.8 15.8 17 16 17C16.2 17 17.2 16.8 18 16" stroke="#FDF8F0" stroke-width="0.8" stroke-linecap="round" fill="none"/>
</svg>
